<svg width="501" height="300" viewBox="0 0 501 300" fill="none" xmlns="http://www.w3.org/2000/svg">
<path d="M397.5 300H3.5C1.84315 300 0.5 298.657 0.5 297V101.243C0.5 100.447 0.816071 99.6839 1.37868 99.1213L99.6213 0.87868C100.184 0.316071 100.947 0 101.743 0H497.5C499.157 0 500.5 1.34315 500.5 3V196.88C500.5 198.537 499.157 199.88 497.5 199.88H453.5C451.843 199.88 450.5 201.224 450.5 202.88V247C450.5 248.657 449.157 250 447.5 250H403.5C401.843 250 400.5 251.343 400.5 253V297C400.5 298.657 399.157 300 397.5 300Z" fill="#4556F1"/>
<path d="M20.5 206.035H73.9369V224.222H41.7356V233.568H72.0147V251.856H41.7356V279.691H20.5V206.035Z" fill="white"/>
<path d="M101.57 279.691H80.3345V206.035H101.57V279.691Z" fill="white"/>
<path d="M133.598 261.403H167.941V279.691H112.371V206.035H133.607V261.403H133.598Z" fill="white"/>
<path d="M206.772 279.691L191.934 229V279.691H172.831V206.035H203.916L216.41 251.856L228.703 206.035H259.486V279.691H240.383V228.689L225.756 279.691H206.753H206.772Z" fill="white"/>
<path d="M299.97 204.305C313.078 204.305 322.927 207.252 332.281 212.433L323.339 230.007C317.957 226.758 308.199 223.197 299.256 223.197C293.572 223.197 290.314 224.515 290.314 227.362C290.314 229.494 292.346 231.023 296.41 231.938L307.284 234.172C321.096 237.119 332.785 241.485 332.785 256.012C332.785 272.671 318.46 281 300.584 281C285.041 281 273.462 276.533 265.234 270.437L275.696 253.266C281.893 257.842 291.751 261.897 301.298 261.897C307.293 261.897 310.945 260.881 310.945 257.732C310.945 254.584 306.881 253.055 299.97 251.536L291.641 249.806C280.062 247.371 268.574 241.778 268.574 227.764C268.574 211.81 284.217 204.295 299.97 204.295V204.305Z" fill="white"/>
<path d="M47.2184 118.393H70.4861L97.2046 192.049H74.1383L70.3763 179.756H46.9072L43.1452 192.049H20.5L47.2184 118.393ZM51.8958 163.903H65.5067L58.7974 141.752L51.8866 163.903H51.8958Z" fill="white"/>
<path d="M126.376 118.393C150.047 118.393 168.848 127.235 168.848 155.171C168.848 183.107 150.056 192.049 126.376 192.049H100.976V118.393H126.376ZM126.678 135.564H122.212V174.878H126.678C138.358 174.878 146.697 171.93 146.697 155.171C146.697 138.411 138.367 135.564 126.678 135.564Z" fill="white"/>
<path d="M204.152 116.663C217.259 116.663 227.108 119.61 236.463 124.791L227.52 142.365C222.138 139.116 212.381 135.555 203.438 135.555C197.744 135.555 194.495 136.873 194.495 139.72C194.495 141.853 196.527 143.381 200.591 144.297L211.465 146.53C225.287 149.477 236.966 153.843 236.966 168.37C236.966 185.029 222.641 193.358 204.765 193.358C189.223 193.358 177.635 188.891 169.406 182.795L179.868 165.624C186.065 170.2 195.923 174.255 205.47 174.255C211.465 174.255 215.117 173.239 215.117 170.09C215.117 166.942 211.053 165.413 204.143 163.894L195.813 162.164C184.234 159.729 172.747 154.136 172.747 140.123C172.747 124.168 188.39 116.654 204.143 116.654L204.152 116.663Z" fill="white"/>
<path d="M278.449 193.367C255.895 193.367 239.84 179.345 239.84 155.07C239.84 130.795 255.895 116.663 278.449 116.663C301.003 116.663 317.058 130.786 317.058 155.07C317.058 179.354 301.003 193.367 278.449 193.367ZM278.449 175.592C286.98 175.592 295.007 169.596 295.007 155.07C295.007 140.544 286.98 134.448 278.449 134.448C269.918 134.448 261.891 140.544 261.891 155.07C261.891 169.596 269.918 175.592 278.449 175.592Z" fill="white"/>
</svg>
